<svg width="2048" height="2048" viewBox="0 0 2048 2048" fill="none" xmlns="http://www.w3.org/2000/svg">
<g clip-path="url(#clip0_4_2)">
<rect width="2048" height="2048" fill="white"/>
<path d="M759.5 1150.5V646H909V1150.5C909 1199.17 898.333 1241 877 1276C855.667 1310.67 826.5 1337.33 789.5 1356C752.833 1374.67 711.5 1384 665.5 1384C617.833 1384 575.667 1376 539 1360C502.333 1344 473.5 1319.5 452.5 1286.5C431.5 1253.17 421 1211 421 1160H571.5C571.5 1186.67 575.167 1207.83 582.5 1223.5C590.167 1239.17 601 1250.33 615 1257C629 1263.67 645.833 1267 665.5 1267C684.5 1267 701 1262.5 715 1253.5C729 1244.5 739.833 1231.33 747.5 1214C755.5 1196.67 759.5 1175.5 759.5 1150.5ZM1322 770.5L1124 1374H964.5L1235 646H1336.5L1322 770.5ZM1486.5 1374L1288 770.5L1272 646H1374.5L1646.5 1374H1486.5ZM1477.5 1103V1220.5H1093V1103H1477.5Z" fill="url(#paint0_linear_4_2)"/>
<rect x="1061" y="1759" width="1115.52" height="634.827" transform="rotate(-62.9257 1061 1759)" fill="white"/>
</g>
<defs>
<linearGradient id="paint0_linear_4_2" x1="400" y1="1024" x2="1649" y2="1024" gradientUnits="userSpaceOnUse">
<stop stop-color="#0844D9"/>
<stop offset="1" stop-color="#64B8FB"/>
</linearGradient>
<clipPath id="clip0_4_2">
<rect width="2048" height="2048" fill="white"/>
</clipPath>
</defs>
</svg>
