<svg width="2048" height="2048" viewBox="0 0 2048 2048" fill="none" xmlns="http://www.w3.org/2000/svg">
<g clip-path="url(#clip0_4_2)">
<mask id="mask0_4_2" style="mask-type:alpha" maskUnits="userSpaceOnUse" x="-1036" y="-1109" width="3346" height="3346">
<rect x="-1036" y="643.267" width="2478.08" height="2252.8" transform="rotate(-45 -1036 643.267)" fill="#D9D9D9"/>
</mask>
<g mask="url(#mask0_4_2)">
<path d="M587.175 1233.23V400.8H833.85V1233.23C833.85 1313.53 816.25 1382.55 781.05 1440.3C745.85 1497.5 697.725 1541.5 636.675 1572.3C576.175 1603.1 507.975 1618.5 432.075 1618.5C353.425 1618.5 283.85 1605.3 223.35 1578.9C162.85 1552.5 115.275 1512.08 80.625 1457.63C45.975 1402.63 28.65 1333.05 28.65 1248.9H276.975C276.975 1292.9 283.025 1327.83 295.125 1353.68C307.775 1379.53 325.65 1397.95 348.75 1408.95C371.85 1419.95 399.625 1425.45 432.075 1425.45C463.425 1425.45 490.65 1418.03 513.75 1403.18C536.85 1388.33 554.725 1366.6 567.375 1338C580.575 1309.4 587.175 1274.48 587.175 1233.23ZM1515.3 606.225L1188.6 1602H925.425L1371.75 400.8H1539.22L1515.3 606.225ZM1786.72 1602L1459.2 606.225L1432.8 400.8H1601.92L2050.72 1602H1786.72ZM1771.87 1154.85V1348.73H1137.45V1154.85H1771.87Z" fill="url(#paint0_linear_4_2)"/>
</g>
</g>
<defs>
<linearGradient id="paint0_linear_4_2" x1="-6" y1="1024" x2="2055" y2="1024" gradientUnits="userSpaceOnUse">
<stop stop-color="#0844D9"/>
<stop offset="1" stop-color="#64B8FB"/>
</linearGradient>
<clipPath id="clip0_4_2">
<rect width="2048" height="2048" fill="white"/>
</clipPath>
</defs>
</svg>
