<svg width="2048" height="2048" viewBox="0 0 2048 2048" fill="none" xmlns="http://www.w3.org/2000/svg">
<g clip-path="url(#clip0_4_2)">
<rect width="2048" height="2048" fill="white"/>
<path d="M626.25 1213.75V457H850.5V1213.75C850.5 1286.75 834.5 1349.5 802.5 1402C770.5 1454 726.75 1494 671.25 1522C616.25 1550 554.25 1564 485.25 1564C413.75 1564 350.5 1552 295.5 1528C240.5 1504 197.25 1467.25 165.75 1417.75C134.25 1367.75 118.5 1304.5 118.5 1228H344.25C344.25 1268 349.75 1299.75 360.75 1323.25C372.25 1346.75 388.5 1363.5 409.5 1373.5C430.5 1383.5 455.75 1388.5 485.25 1388.5C513.75 1388.5 538.5 1381.75 559.5 1368.25C580.5 1354.75 596.75 1335 608.25 1309C620.25 1283 626.25 1251.25 626.25 1213.75ZM1470 643.75L1173 1549H933.75L1339.5 457H1491.75L1470 643.75ZM1716.75 1549L1419 643.75L1395 457H1548.75L1956.75 1549H1716.75ZM1703.25 1142.5V1318.75H1126.5V1142.5H1703.25Z" fill="url(#paint0_linear_4_2)"/>
<rect x="1216" y="1859.09" width="1326.45" height="846.371" transform="rotate(-62.9257 1216 1859.09)" fill="white"/>
</g>
<defs>
<linearGradient id="paint0_linear_4_2" x1="87" y1="1024" x2="1961" y2="1024" gradientUnits="userSpaceOnUse">
<stop stop-color="#0844D9"/>
<stop offset="1" stop-color="#64B8FB"/>
</linearGradient>
<clipPath id="clip0_4_2">
<rect width="2048" height="2048" fill="white"/>
</clipPath>
</defs>
</svg>
