<svg width="512" height="512" viewBox="0 0 512 512" fill="none" xmlns="http://www.w3.org/2000/svg">
<g clip-path="url(#clip0_2_3)">
<rect width="512" height="512" fill="white"/>
<path d="M189.875 288.125V162H227.25V288.125C227.25 300.292 224.583 310.75 219.25 319.5C213.917 328.167 206.625 334.833 197.375 339.5C188.208 344.167 177.875 346.5 166.375 346.5C154.458 346.5 143.917 344.5 134.75 340.5C125.583 336.5 118.375 330.375 113.125 322.125C107.875 313.792 105.25 303.25 105.25 290.5H142.875C142.875 297.167 143.792 302.458 145.625 306.375C147.542 310.292 150.25 313.083 153.75 314.75C157.25 316.417 161.458 317.25 166.375 317.25C171.125 317.25 175.25 316.125 178.75 313.875C182.25 311.625 184.958 308.333 186.875 304C188.875 299.667 189.875 294.375 189.875 288.125ZM330.5 193.125L281 344H241.125L308.75 162H334.125L330.5 193.125ZM371.625 344L322 193.125L318 162H343.625L411.625 344H371.625ZM369.375 276.25V305.625H273.25V276.25H369.375Z" fill="url(#paint0_linear_2_3)"/>
<rect x="265" y="440" width="278.882" height="158.708" transform="rotate(-62.9257 265 440)" fill="white"/>
</g>
<defs>
<linearGradient id="paint0_linear_2_3" x1="100" y1="256" x2="413" y2="256" gradientUnits="userSpaceOnUse">
<stop stop-color="#0844D9"/>
<stop offset="1" stop-color="#64B8FB"/>
</linearGradient>
<clipPath id="clip0_2_3">
<rect width="512" height="512" fill="white"/>
</clipPath>
</defs>
</svg>
